<svg width="800" height="600" xmlns="http://www.w3.org/2000/svg" xmlns:undefined="http://www.inkscape.org/namespaces/inkscape">

    <g>
     <title>Layer 1</title>
     <g stroke="null" stroke-width="20" id="svg_8">
      <g stroke="null">
       <path stroke="null" fill="#a6adbb" d="m403.69934,192.72097c13.25528,-2.95655 23.11519,-13.97478 23.11519,-27.15136c0,-15.44117 -13.52414,-27.95794 -30.20803,-27.95794l-33.25451,0c-16.6839,0 -30.20803,12.51677 -30.20803,27.95794c0,6.87066 2.68851,13.15281 7.1291,18.02029l-54.21284,92.09906l-54.21284,-92.09906c4.44209,-4.86748 7.1291,-11.14963 7.1291,-18.02029c0,-15.44117 -13.52414,-27.95794 -30.20803,-27.95794l-33.253,0c-16.6839,0 -30.20803,12.51677 -30.20803,27.95794c0,13.17658 9.8599,24.19341 23.11519,27.15136l87.42809,148.52797l0,159.75728l-6.91915,0c-16.6839,0 -30.20803,12.51677 -30.20803,27.95794s13.52414,27.95794 30.20803,27.95794l74.25587,0c16.6839,0 30.20803,-12.51677 30.20803,-27.95794s-13.52414,-27.95794 -30.20803,-27.95794l-6.92066,0l0,-159.75169l87.43262,-148.53357z"/>
      </g>
      <g stroke="null" transform="matrix(1.39604 -0.0719988 0.0719988 1.39604 -108.926 -47.2235)">
   
       <metadata stroke="null" fill="#a6adbb" id="svg_6">image/svg+xml</metadata>
       <g stroke="null" transform="translate(-256.68 -531.796)" id="svg_3"  >
        <g stroke="null" stroke-width="1px" fill="#000000" text-anchor="start" font-family="'Times New Roman'" font-weight="normal" font-style="normal" id="svg_4" aria-label="τ">
         <path stroke="null" fill="#a6adbb" id="svg_5" d="m688.13201,665.00241l-9.70341,81.12003q-2.34221,21.19862 -2.34221,42.39722q0,40.41869 11.04181,49.18079q11.37642,8.47944 25.76423,8.47944q32.12164,0 38.14446,-34.20043l12.38021,0q-11.04181,78.5762 -73.94669,78.5762q-65.91628,0 -65.91628,-63.8785q0,-32.22189 7.3612,-80.27208l12.38021,-81.40268l-33.12543,0q-27.43724,0 -42.82886,7.91415q-15.05703,7.6315 -28.10644,31.09131l-12.04562,0q10.70721,-31.09131 25.42963,-49.18079q14.72242,-18.37213 28.10644,-24.5904q13.38402,-6.5009 39.81744,-6.5009l164.62341,0l0,41.26663l-97.03412,0z"/>
        </g>
       </g>
      </g>
     </g>
    </g>
   </svg>